<svg width="456" height="456" viewBox="0 0 456 456" fill="none" xmlns="http://www.w3.org/2000/svg">
<mask id="mask0" mask-type="alpha" maskUnits="userSpaceOnUse" x="0" y="0" width="456" height="456">
<circle cx="228" cy="228" r="228" fill="#E4BBD1"/>
</mask>
<g mask="url(#mask0)">
<path d="M415 206.094V249.371H308.677L400.574 302.266L378.669 340.2L286.771 286.771L340.2 378.669L302.266 400.574L249.371 308.677V415H206.094V308.677L152.666 400.574L115.266 378.669L168.16 286.771L76.7971 340.2L54.8914 302.266L146.789 249.371H41V206.094H146.789L54.8914 152.666L76.7971 115.266L168.16 168.16L115.266 76.7972L152.666 54.8914L206.094 146.789V41H249.371V146.789L302.266 54.8914L340.2 76.7972L286.771 168.16L378.669 115.266L400.574 152.666L308.677 206.094H415Z" fill="#F9CB29"/>
</g>
</svg>
