<svg width="456" height="456" viewBox="0 0 456 456" fill="none" xmlns="http://www.w3.org/2000/svg">
<mask id="mask0" mask-type="alpha" maskUnits="userSpaceOnUse" x="0" y="0" width="456" height="456">
<circle cx="228" cy="228" r="228" fill="#E4BBD1"/>
</mask>
<g mask="url(#mask0)">
<path d="M228.069 136.138H225.397V41H228.069V136.138ZM202.414 139.879L177.293 47.4138L179.966 46.8793L204.552 139.345L202.414 139.879ZM251.586 139.879L248.379 139.345L274.035 46.8793L276.173 47.4138L251.586 139.879ZM273.5 149.5L270.828 147.897L318.397 65.0517L321.069 66.6552L273.5 149.5ZM179.966 149.5L132.931 66.6552L135.069 65.0517L183.172 147.897L179.966 149.5ZM291.673 164.466L289.535 161.793L357.414 94.9828L359.017 96.5862L291.673 164.466ZM161.793 164.466L94.4483 96.5862L96.5863 94.9828L163.931 161.793L161.793 164.466ZM147.362 183.172L65.052 135.603L66.1208 132.931L148.966 180.5L147.362 183.172ZM306.103 183.172L304.5 180.5L387.345 132.931L388.414 135.603L306.103 183.172ZM156.983 283.655L154.845 281.517L216.845 233.414L144.155 263.879L143.086 261.207L216.845 230.207L137.207 240.897L136.673 238.224L216.845 227.534L136.673 217.379V214.707L216.31 224.328L142.017 194.931L143.621 191.724L217.914 222.19L153.776 174.086L155.38 171.414L219.517 220.052L169.81 156.448L171.948 154.845L221.121 217.914L190.121 144.155L192.793 143.086L223.793 216.845L212.569 137.207H215.776L226.466 216.31L236.621 136.672L238.759 137.207L229.138 216.845L259.069 142.552L262.276 143.621L231.81 218.983L279.914 153.776L282.586 155.914L235.017 218.983L297.552 169.81L299.155 172.483L235.017 222.19L309.31 190.121L310.379 193.328L237.69 224.328L316.259 212.569L316.793 215.776L237.69 227L317.328 236.621L316.793 239.293L237.155 229.672L310.914 259.603L309.845 262.276L236.621 232.879L300.224 280.448L298.086 283.121L234.483 234.483L283.655 297.017L281.517 299.155L232.345 236.086L263.879 309.31L260.672 310.379L229.672 237.155L240.362 316.793L238.224 317.328L227 237.155L217.379 317.328L214.173 316.793L223.793 237.69L194.397 311.448L191.724 309.845L221.121 237.69L173.552 300.224L170.88 298.621L220.586 233.414L156.983 283.655ZM138.811 205.086L46.345 179.965L47.4138 177.293L139.879 202.414L138.811 205.086ZM314.655 205.086L314.121 202.414L406.052 177.293L406.586 179.965L314.655 205.086ZM413 228.603H317.862V225.931H413V228.603ZM136.673 228.603H41V225.931H136.673V228.603ZM47.4138 276.707L46.345 274.034L138.811 248.914L139.879 251.586L47.4138 276.707ZM406.052 276.707L314.121 251.586L314.655 248.914L406.586 274.034L406.052 276.707ZM387.345 321.069L304.5 274.034L306.103 270.828L388.414 318.397L387.345 321.069ZM66.1208 321.069L65.052 318.397L147.362 270.828L148.966 274.034L66.1208 321.069ZM96.5863 359.552L94.4483 357.414L161.793 290.069L163.931 291.672L96.5863 359.552ZM357.414 359.552L289.535 291.672L291.673 290.069L359.017 357.414L357.414 359.552ZM318.397 388.414L270.828 306.638L273.5 305.034L321.069 387.879L318.397 388.414ZM135.069 388.414L132.931 387.879L179.966 305.034L183.172 306.638L135.069 388.414ZM274.035 407.121L248.379 315.19L251.586 314.121L276.173 406.052L274.035 407.121ZM179.966 407.121L177.293 406.052L202.414 314.121L204.552 315.19L179.966 407.121ZM228.069 413H225.397V317.328H228.069V413Z" fill="#0E0E0E"/>
</g>
</svg>
